<svg width="1024" height="1024" viewBox="0 0 1024 1024" xmlns="http://www.w3.org/2000/svg" >
<path fill="#f60" d="m 382,560 c -11.1,-5 -42.1,9.8 -41,22 l 2.2,24.8 7,15.2 12.1,-17.6 16.7,-4.8 13.8,5.8 6.9,12.8 -18.1,32.6 -7.6,31.7 c 1.9,28.5 0.6,56.1 26.2,91.7 l -49.8,-8.5 c -11.9,-3 -22.5,-1.7 -27.3,-7.2 -6.8,-7.8 -4.4,-22.6 2.5,-24.1 1.7,-0.4 6.4,-0.4 9,2.8 3.5,4.3 4,13.2 8.7,13 16.1,-12.7 12.9,-50 -20.8,-41.5 -13.2,0 -20.8,12.6 -26.8,29.1 3.7,26.1 15,47.3 48.6,54.2 4.2,0.9 -3.3,6.2 -1.2,14.2 3,12.1 14.8,27.3 17.2,19.8 13.2,-41.6 65.3,-7.3 102,-3.9 -6.8,30.9 5.9,56.7 25.2,63.7 10.7,3.9 23.5,0.4 35.7,-5.2 6.2,-2.8 14.5,-9.6 19.3,-11.9 5.3,-2.5 19.7,-9.1 22.5,5.5 2,10.4 6,8.2 14.6,1.9 3.1,-2.3 2.9,-10.2 6.7,-11.1 12.3,-3.1 32.9,-2.4 44.2,-4.5 7.9,-1.4 15,-12.3 20.5,-18.4 7.7,-0.2 2.1,-40 -0.3,-42.4 8.6,0.3 21.6,-0.8 22.5,-2.5 1,-1.6 11.4,-20.3 -3.1,-30.8 -4.4,-3.3 -11.6,6.9 -17.6,6.4 -8.4,-0.7 -24,-34.3 -28.2,-53.3 -5.1,-22.7 -4.4,-35.5 -10.1,-43.5 l -23.2,-4.2 -5.5,47.5 c -1.4,11.3 -4.5,28.5 -15.6,35 -9.7,5.7 -20.2,7.4 -23.5,18.4 l -12.7,17.5 -24,6.7 c -21.6,2.1 -6.2,-14.5 1.5,-27.2 14.7,-21.5 28.8,-43.5 35.9,-71.6 5.6,-52.5 -30.1,-89.3 -67,-102.3 -20.7,-6.4 -39.4,1.4 -58.8,4 -6.5,-12.3 -16.2,-23.8 -28,-34.7 z m 108.6,65 c 16.2,12.2 29.8,25.2 24.6,46.3 -4.1,16.5 -7.7,19.6 -28,19.6 -8.1,0 -15.1,-6.8 -8.9,-21.9 -1.1,-2.4 -19.6,-9.9 -20.8,7 -0.5,6.4 -2.6,15.1 -7.5,19.4 -6.2,5.4 -10.9,3.6 -15.5,9.3 -5.2,6.5 -5.1,12.5 -6,16.9 -0.4,1.9 3.4,5.5 7.1,4.1 2.3,-0.9 3.6,-6.6 6.7,-7.1 8,-1.4 17.7,2 19.3,3 9.8,5.8 30.6,9.8 45.8,2.5 -5.5,20.2 -28.7,55.1 -34.7,66.9 -9.1,18.4 -47.5,-20.2 -55.3,-30.7 -7.1,-9.5 -20.9,-38.1 0.3,-77.7 4.2,-7.8 10.1,-34.7 10.7,-41.7 2.3,-23.9 50.6,-24.6 62.2,-15.9 z m 117.2,158.3 c 5,-0.5 6.6,5.7 8.8,9.1 4.4,6.9 12.7,18 13,23.6 1.1,23.8 -6.5,27.6 -20.4,27.6 -13.9,0 -36.5,-17.8 -36.5,-41.6 0,-5.4 4.5,-15.1 6.6,-16.1 17.2,18.2 17.4,13.7 21.2,11 4.8,-3.5 1.3,-13 7.3,-13.6 z M 534,821.2 c 2.7,0 11.5,-2.3 15,-0.1 5.6,3.5 7.6,8.8 7.6,14.5 0,9.4 -9.9,12 -16.9,12 -3.2,0 -7.5,-1.1 -9.7,-3.7 -2.7,-3.1 -3.3,-5.8 -6.7,-9.6 -2,-2.3 -3.2,-2.6 -2.4,-4.5 1.6,-4 8.4,-8.6 13.1,-8.6 z m -33.5,5.4 c 7.4,0 13.5,6.8 13.5,15.2 0,8.4 -6,15.3 -13.5,15.3 -7.5,0 -13.5,-6.9 -13.5,-15.3 0,-8.4 6.1,-15.2 13.5,-15.2 z" />
<path fill="#f60" d="m 332.9,516.7 11.7,-15.2 c 4.4,-5.7 11.8,-1 19.6,2.6 5.4,2.5 13.6,2.6 10.2,6.3 l -14.5,16.1 c -8.5,9.4 -9.9,12.7 -21.6,16 l -26.5,-5.2 -10.7,10.7 c -8.6,8.6 -15.7,-6.8 -7.3,-15.6 l 14.3,-15.1 c 5.5,-5.7 17.4,9.1 24.8,-0.6 z" />
<path fill="#999" d="m 385,112.6 c 33,-6 59.2,-8.7 83.2,-7.7 24,1 58.7,7.2 72.9,11.2 14.2,4 46,16.1 67.8,30.1 28,16 48.6,37.2 73.6,74.2 27,39 38.7,71.1 55.7,139.1 10,36 32.9,92.6 43.9,107.6 13,17 32.7,30.2 38.7,25.2 3,-2 1.8,-4.4 -7.2,-21.4 -21,-40 -21.5,-99.8 -4.5,-195.8 13,-79 36.1,-129.5 71.1,-174.5 17,-22.01 23.1,-31.59 11.1,-31.59 -7,0 -31.1,17.88 -44.1,26.88 -19,14.01 -61.6,42.41 -90.6,48.41 -25,5 -61.5,-2.3 -108.5,-25.3 -45,-20.99 -107.7,-40.41 -154.6,-45.41 -37,-5 -43.5,-1.64 -83.5,2.36 -57,6 -115.3,33.05 -154.3,73.05 -58,62 -71.7,161 -29.7,250 14,28 58,73 89,88 13,7 80.7,27.4 81.7,27.4 -25.6,14.7 -47.7,24.6 -63.4,28.1 -8.7,1.9 -16.7,-5.7 -22.4,-3 -13.6,6.3 -18.4,20.2 -26.2,28.9 -20,28 -33.7,55.6 -55.7,151.6 -16,63 -25,83 -66,135 -25,32 -34.8,57.3 -34.8,80.3 0,11 1.3,17 3.3,17 2,0 9.9,-7.2 22.9,-20.2 37,-37 87.1,-54 137.1,-49 33,4 49.8,9.5 99.8,30.5 24,11 62.8,22.8 84.8,27.8 100.6,25 198.9,1.1 271.9,-65.9 27,-24 51.3,-68.9 62.3,-111.9 13,-49 8.1,-143.6 -7.9,-178.6 -25,-54 -31.4,-66.6 -48.4,-84.6 -37,-41 -65.7,-54.6 -146.7,-70.6 -20.8,-4 -47.6,-8.5 -56.5,-8.5 -45.6,-2.4 -88.1,-3.4 -133.1,-10.4 -10,0 -57.8,-15.4 -74.8,-23.4 -20,-11 -54.2,-42.6 -63.2,-60.6 -7,-14 -13.1,-60.1 -9.1,-86.1 4,-31 18.6,-66.9 31.6,-82.9 9,-9 31,-29 50,-36 18,-7 32.8,-9.3 32.8,-9.3 z m 423.8,47.5 c 3,1 0.7,6 -3.3,13 -12,22 -23.9,71.5 -32.1,109.9 l -9.1,42.3 -16.4,-41.2 c -15.4,-38.5 -32.1,-74.7 -50.1,-93.7 -9,-9 -17.4,-23.4 -10.4,-20.4 4,1 37.9,6.2 52.9,5.4 16.7,-1 24.8,-1.9 44.8,-9.9 16,-6 21.7,-5.4 23.7,-5.4 z M 251.4,337.4 c 0.2,-0.7 7.3,12.1 17.6,24.8 8.6,10.7 20,21 25,26.5 11.5,12.5 28.8,21.2 42.1,28.6 13.9,7.7 35,20 46,24 17,6 14,13.2 14,19.2 0,6 -10.5,6.1 -23.5,4.1 -22,-4 -68.5,-34.5 -87.8,-56.2 C 269.3,390.9 248,353.2 249.7,345.5 Z M 614.9,465 c 5,0 25.5,3.4 32.5,5.4 12,4 23.8,10.8 37.2,16.9 7.4,3.4 52.4,28.9 63.3,58.1 l 11.3,25.6 -16.9,-13.6 c -26.5,-21.3 -62.8,-49.7 -100.8,-56.7 -22,-4 -37.9,-8.3 -37.9,-15.3 0,-10 1.3,-20.4 11.3,-20.4 z m -216.4,90 c 11,-3 23.5,-3.9 35.5,-4.9 18,0 37.5,2.9 57.5,8.9 30,9 40.3,19.6 49.2,50.6 7,22 11.1,30.6 27,46.6 33.7,22 52.5,21.2 78.6,21.2 29,0 41.5,9.6 38.5,24.6 -5,20 11.4,13.4 20.4,-6.6 5,-11 4.3,-11.9 -1.7,-23.9 -6,-10 -10,-9.3 -21.1,-14 l -16.4,-4.7 8.2,-19.1 c 3.5,-8.2 7.2,-15.6 11.2,-17.6 10,-5 9.8,-6.8 -4.2,-12.8 -11,-4 -11.9,-3 -20.9,3 -9,5 -14.4,3.8 -18.4,-0.2 -6,-6 -12.8,-7.2 -18.8,-1.2 -4,4 -5.2,2.1 1.8,8.1 7,5 6.3,14.5 3.3,19.5 -8,13 -15.5,6.1 -25.5,-15.9 -11.9,-26 -46.7,-62.5 -68.5,-72.5 -13,-6 -25.3,-18.6 -17.3,-17.6 1,0 8.4,0.5 10.1,0.5 3,1 26.7,3 50.5,4 87.7,6 134.6,35.5 163.6,95.5 16,34 21.1,60.8 16.1,98.8 -7,66 -35,116.3 -78,147.3 -62,44 -121.9,53.8 -202.6,34.8 -91,-23 -154.5,-67 -184.5,-129 -9,-19 -10.6,-32.7 -11.6,-64.7 -1,-22 0.7,-45.6 2.7,-54.6 5,-20 23.8,-55.1 43.8,-70.1 20,-15 47.5,-27 71.5,-34 z M 253.1,761.2 c 0,0 7,11.9 8,14.9 2,5 7.7,17.1 10.7,25.1 3,9 9.7,19.3 15.3,28.5 l 11.7,19.5 -17.5,-3 c -2.7,-0.4 -43.3,3.1 -53,6.3 l -28.2,9.4 21.8,-34.4 c 8.2,-12.9 18.7,-43 23,-53.9 6.5,-16.7 6.2,-12.4 8.2,-12.4 z" />
<path fill="#f60" d="m 570,424.4 c 3.7,0 18,0.5 16.4,12.6 l -8.5,66.5 c -1.6,12.1 -0.2,22.6 -3.9,22.6 -3.6,0 -22.1,1.7 -20.1,-10.3 L 565.5,447 c 2,-12.1 0.9,-22.6 4.5,-22.6 z" />
<circle fill="#f60" cx="499.2" cy="440.2" r="9.9" />
<circle fill="#f60" cx="496.4" cy="472" r="9.9" />
<circle fill="#f60" cx="497.4" cy="503.4" r="9.9" />
<path fill="#f60" d="m 483,108.4 c -4.2,0.1 -8.4,17 -36.6,21.5 -17.6,2.8 -38.6,9 -53.8,10.9 -11,1.3 -18.8,-0.9 -20.3,-2.8 l -11.4,-14 c -7.7,-9.5 -13.1,13.8 -8.9,25.2 l 2,5.5 20.9,9.4 -28.8,38.5 c -4.7,6.3 -14.6,18.8 -23.8,23.7 -2.7,1.4 -19,-22.2 -20.6,-15.9 -0.5,2.1 -7.7,18.2 -4.7,27.5 3.1,9.6 9.5,16.3 8.7,18.7 l -13.2,41.5 6.9,31.4 23.4,22.7 c 2.3,2.3 39.8,13.5 54.8,-9.5 10.4,-16 0.2,-49.6 -15.4,-50.6 -4.2,-0.3 -2.3,25.7 -7.1,31.1 -11.7,13.2 -18.2,6.6 -28.9,0.3 -11.2,-6.7 -17.7,-19.4 -4.1,-39.5 5.7,-8.3 14.6,-15.2 24.1,-28.6 5.5,-7.8 9.5,-28.9 15.2,-33.8 4.5,-3.9 -0.7,5.9 2.8,13 6.3,12.8 3.8,30.2 16,52.4 8.8,16.1 36.4,29.7 43.3,45.4 4,9 12.3,23.8 13.3,30.4 1.9,12.6 1.8,4.3 8.7,0.7 9.7,-4.9 4.3,-30.1 12.7,-34.5 8.6,-4.5 17.8,-5.8 25.2,-9.8 10.6,-5.8 16.3,-13.9 23,-19.8 3.6,-3.1 9.7,-3.5 11.8,-7.2 11.4,-20.3 15.2,-43.6 19.4,-48.7 6.2,-7.5 9.9,7.3 10.1,-5.6 l -10.5,-14 -15.4,-5.1 -14.1,8.8 -12.9,-21.3 -8.9,-19.6 1.5,-23.8 5.2,-10.8 9.9,-1 4,13.4 10.8,4.5 27.7,1.5 21,19.6 17,27 10.6,47.4 -25.5,13.9 -32.7,29.6 -14.9,23.2 -49.7,33.2 -44.1,42 -10.2,44.5 -3.9,66.9 13.4,3.3 5.8,-18 12.6,-86.7 16.1,-3.8 27.9,-15.6 28.6,-2.9 23.7,13.8 12.2,-10.6 -0.4,-15.4 -18.6,-19.2 26.2,-15.8 21,-16.1 27.3,-30.9 13.2,-3.8 12.6,8.4 7.7,15.7 -4.4,13.9 -14.7,19.2 7.3,5 20.1,-2.3 12.1,-5.9 14.8,22 13.1,15.1 15.3,4.1 11.4,-4.1 9.9,-11.2 1.9,-21.4 -4.7,-1.7 -19,6.4 -17.3,-27.4 -5.8,-21.2 12.5,-11.7 2.1,-14.2 -39.5,-8.8 -37.7,-14 -0.6,-33.4 2.9,-39.2 12.9,-14.6 c -5.2,-3.3 -7.7,-8.6 -26.9,-1.6 l -12.3,10.4 -24.1,-24.7 -14.6,-11 -13.7,-7.7 -9.3,-18.1 -1.8,-8 c -26.1,-7.5 -27.2,-8.4 -48.8,-5.7 z m -26.1,43.2 c 3.7,26.9 7.3,44.8 18.1,67.8 2.4,5.2 -9.2,-4.8 -16.8,-7.5 -4.8,-1.7 -30.5,-8.4 -32.9,-4.5 -9.1,15.3 10,16.8 9.6,30 -0.1,2.5 -3.1,20.8 2.5,24.4 3.7,2.4 15.5,-8.8 19.2,-9.6 6.9,-1.5 6.1,3 10.9,7.9 5.2,5.4 4.8,19.9 3.5,23 -2,4.8 -12.1,14.7 -23.9,15.3 -14.2,0.8 -31.1,-11.7 -33.1,-12.8 -18.2,-10 -25.7,-46.3 -23.6,-70.8 2.1,-23.9 27.4,-50.5 66.5,-63.2 z" />
<path d="m 546.5,370.5 c -7,-5.6 -10,-10.2 -7,-10.2 10,0 46,-27.4 59,-44.9 14,-18.8 22,-21.9 32,-10.9 11,14.4 11,24.1 -1,36.2 -7,6.3 -11,13.3 -10,15.3 5,7.4 25,8.9 35,2.7 9,-6.3 10,-5.9 17,9 9,16.4 22,27.7 32,27.7 4,0 11,-3.5 17,-8.2 8,-6.2 10,-11.3 10,-23.4 0,-17.6 -7,-23.5 -18,-13.3 -6,5.9 -7,5.9 -13,0 -4,-3.5 -9,-12.8 -11,-21.5 -3,-12.5 -3,-15.6 3,-21.1 8,-6.2 11,-27.3 5,-31.2 -2,-1 -6,0 -8,1.2 -3,1.6 -19,-1.2 -37,-7 l -30,-10.2 v -35.9 c 0,-32 1,-37.2 9,-43.7 l 7,-7.9 -10,-4.2 c -9,-3.6 -13,-3.2 -22,3 l -10,7.9 -16,-15.7 c -8,-8.5 -20,-18.7 -27,-23 -12,-7 -21,-23 -13,-23 7,0 46,17.2 68,30.5 28,16.7 46,35.8 72,73 27,39.3 40,69.9 57,138.6 10,35.5 32,93.2 44,108.6 13,17.1 37,32.4 43,27.2 3,-2.6 2,-9.3 -7,-25.7 -21,-40.3 -21,-98.9 -4,-194.9 14,-78.1 36,-128.6 71,-173.8 17,-22.15 20,-35.45 7,-35.45 -7,0 -32,16.9 -45,26.1 -19,13.25 -62,43.45 -92,49.65 -24,5.1 -58,-3.2 -106,-25.8 -44,-21.15 -107,-39.05 -153,-44.55 -38,-4.7 -45,-4.7 -84,-0.4 -58,5.9 -118,34.85 -157,75.05 -59,61.3 -69,164 -28,252.2 14,28.9 59,73.1 89,88.7 13,6.3 24,12.1 25,12.1 0,0 -1,4.7 -4,8.9 -4,6.4 -8,7.9 -16,6.4 -15,-3.6 -31,12.1 -31,29.2 0,7.4 -2,17.5 -6,23 -20,28.5 -31,57.1 -54,152.7 -16,63.2 -25,83.2 -65,135.2 -25,32 -38,61 -38,84 0,11 2,18.9 4,19 4.6,0.3 14,-11 27,-23 36,-38 84,-55 135,-49 32,3 48,8 99,29 23,11 62,24 85,30 100,24 202,0 274,-67 27,-25 52,-70 63,-113.7 13,-49.2 9,-144.2 -7,-179.3 -25,-53.9 -34,-69.5 -51,-88.2 -36,-40.2 -66,-54.6 -147,-70.2 -21,-3.9 -47,-7.5 -56,-7.5 0,0 -31.1,-2.3 -32.5,-2.3 -1.4,0 -50.4,-2.5 -50.5,-3.3 0,-3.1 17,-11.3 30,-14.5 7,-1.7 11,-2.6 14,-2.7 3,0 5.9,-0.4 9,2.6 6.5,6.4 13.5,9.5 19.8,14.7 21.5,-17.8 20.2,-30 5.2,-42.8 z m 344,-296.85 c 2,1.1 -4,12.9 -15,26.1 -32,41.35 -51,83.55 -63,136.75 -26,118.6 -25,205 1,241.6 10,14.5 9,16.4 -5,8.3 -27,-15.6 -50,-64.4 -74,-155.4 -19,-73.8 -53,-132.4 -99,-171.1 -51,-43.7 -127,-64.85 -207,-57.3 -96,9.3 -141,42.9 -158,116.7 -8,33.2 -4,85.2 9,111.2 19,37.1 57,64.8 108,76.1 36,8.8 34,7.2 30,21.2 -2,7.1 -5,27.7 -5,46.5 -3,39.4 -3,39.4 -41,28.1 -70,-20.6 -124,-65.3 -146,-121.4 -22,-53.2 -24,-114 -5,-168.7 10,-27 16,-36.7 36,-58.6 86,-92.55 231,-102.75 398,-27.3 46,20.7 46.8,22.7 83.8,22.7 44,0 57.2,-7.5 114.2,-50.85 19,-14.9 36,-25.8 38,-24.6 z m -431,33.15 c 10,-0.3 17,0.4 17,2.3 0,6.6 -14,16.8 -23,16.8 -5,0 -24,3.6 -41,7.9 -33,8.6 -41,7.3 -41,-6.4 0,-7 3,-9.3 14,-11.7 27,-5.1 56,-8.3 74,-8.9 z m 42,3.5 c 9,0.5 18,3.5 24,8.6 17,15.2 12,48.1 -7,45.2 -7,-1 -8,-3.5 -7,-12.1 2,-16.3 -9,-30 -23,-30 -11,0 -12,-0.8 -8,-5.9 4,-4.5 12,-6.4 21,-5.8 z m -115,190.1 c 4.8,4.9 15,13.3 22,19.1 17,12.9 27,30.5 23,42.6 -1,5.2 -1,10.2 1,10.9 6,4 22,-13.6 24,-26.9 2,-12.1 5,-14.7 18,-19.2 8,-2.6 20,-10.1 25,-16.7 6,-6.2 15,-13.3 20,-16.1 5,-2.6 8,-9.3 10,-19.1 4,-22.2 9,-33.2 15,-30.4 8,2.8 8,1 0,-13.3 -6,-13.3 -22,-18.7 -30,-11.7 -7,5.9 -7,6.3 -18,-14.5 -11,-23 -10,-51.9 2,-51.9 3,0 5,2.4 4,5.5 -4,8.2 12,14.8 26,12.1 11,-1.9 14,0 29,14.4 18,18.4 26,34.8 31,60.6 2,15.9 2,17.1 -10,23.4 -21,11.3 -36,25.3 -48,43.4 -6,11.7 -19,22.6 -38,34.3 -16,9.4 -38,26.9 -50,38.6 -11,11.8 -22,21.5 -24,21.5 -9,0 -57,-14.8 -75,-23.4 -20,-10.6 -50.7,-40.5 -59.7,-58.1 -7,-13.6 -13.3,-59 -9.3,-84.8 4,-30.9 17,-64.8 29,-80.5 9,-9.8 42,-34.3 47,-34.3 1,0 0,6.2 -1,13.7 -2,12.1 -1,14.1 9,20.3 l 12,6.7 -10,12.1 c -5,6.2 -13,17.5 -18,25 -12,19.1 -21,23.8 -28,14.4 -3,-3.8 -6,-9.4 -8,-11.7 -3,-7.4 -13,10.1 -13,23 0,6.7 3,15.7 6,19.6 3,6.2 3,9.4 -2,23 -10,21.2 -10,35.9 1,57 9,20.3 28,31.3 51,31.3 18,0 38,-17.3 38,-34 0,-15.7 -14,-36.3 -24,-36.3 -8,0 -9,1.6 -6,12.5 1,8.6 0,14.4 -4,19.5 -9,9.8 -18,9 -29,-2.4 -13,-14 -9,-33.1 12,-49.5 10,-7.5 16,-16.8 18,-23.8 1,-6.3 5.4,-15.3 6.9,-18.6 -0.8,8.9 10.3,57.4 25.1,72.7 z m -23,-88.5 c -2,0 -7,9.8 -10,21.5 -4,15.9 -10,24.2 -21,33.2 -30,22.9 -24,66.3 7,66.3 17,0 25,-10.1 23,-26.3 -1,-6.8 -1,-12.8 1,-12.8 7,0 17,16.5 17,29.7 0,11.3 -2,16.3 -11,23.8 -31,26.9 -83,-14.9 -72,-57.4 3,-8.6 8,-20.3 13,-26.6 l 10,-11.7 -10,-2.4 c -10,-2.6 -15,-14 -11,-28.8 2,-10.2 2,-10.6 6,-2 9,19.9 30,12.9 47,-16.3 6,-12.2 17,-25.9 23,-30.6 13,-8.5 16,-16.7 6,-12.8 -3,1.1 -10,0 -16,-1.6 -7,-2.7 -10,-6.7 -10,-14.8 0,-14.9 5,-18.4 10,-7.4 6,10.9 25,11.3 69,1.6 42,-9.5 64,-9.1 70,1 4,7.5 3,7.9 -17,7.9 -64,0 -104,36.7 -99,90.6 2,26.5 12,44.5 29,56.7 18,12 37,11.7 50,-1 12,-12.1 12,-23.1 -1,-35.6 -9,-9.3 -10,-9.7 -17,-3.9 -9,8.5 -12,7.8 -12,-3.5 0,-12.9 12,-19.2 23,-11.3 5,3.1 8,4.2 8,2.7 0,-7 -9,-12.9 -21,-12.9 -13,0 -22,-5.8 -22,-14 0,-6.3 30,-2.8 43,4.6 10,6.7 10,6.7 2,-11.7 -3,-8.2 -6,-22.7 -6,-32.4 -1,-17.9 4,-24.6 17,-24.6 6,0 6,1.5 3,10.6 -5,12.8 -2,27.3 12,60.5 19,42.1 14,77.3 -13,94.9 -11,7 -32,9.4 -45,4.7 -5,-1.9 -9,-1.5 -9,1 0,2 4,5.1 8,6.2 11,3.6 15,13.7 11,24.3 -4,12.1 -11,11.2 -11,-1.3 0,-7 -6,-16 -22,-31.2 -11,-11.8 -17.8,-14.6 -24,-21.1 -6.2,-6.5 -18.6,-39.9 -21.7,-51.9 -2.1,-8 -2.7,-12.5 -3,-18.8 0.3,-5.4 0.6,-15.1 -3.3,-15.1 z m 183,-65.8 c 4,-0.5 10,3.4 20,12.2 8,7 18,17.7 22,23.5 l 7,11.3 5,-10.3 c 3,-6.3 11,-9.8 18,-10.1 6,-0.3 11,0.1 11,2.3 0,1.6 -4,3.5 -6,7.5 -5,7.4 -7,19.6 -7,44.9 v 35.1 h -11 c -9,0 -11,-1.6 -13,-18.7 -4,-25.8 -16,-48.3 -36,-68.3 -12,-11.8 -17,-19.1 -15,-23.9 1,-3.3 3,-5.1 5,-5.5 z m 267,7.4 c -5,0.1 -14,3 -30,9.5 -26,10.1 -62,12.5 -89,6.3 -18,-4.3 -19,1.5 -5,15.2 15,14.5 41,59.3 54,94.5 18,51.9 19,54.3 24,52.8 2,-1 4,-10.3 5,-20.8 2,-43 17,-98.8 35,-135.1 5,-10.2 9,-19.5 9,-20.7 0,-1.1 -1,-1.7 -3,-1.7 z m -358,0.5 2,23 c 2,12.5 4,24.7 5,26.6 3,4.4 -29,0.9 -36,-4.3 -11,-9 -10,15.7 2,28.5 3,4.3 5,10.2 3,16.8 -2,6.7 0,13.7 4,19.9 7,11.7 14,12.5 14,2.4 0,-10.2 6,-14.1 14,-8.2 8,7 7,26.1 -2,31.2 -35,18.7 -76,-24.2 -69,-72.3 4,-24.2 19,-42.5 42,-53.9 z m 349,8.4 c 3,0.3 0,3.9 -4,11.1 -12,21.9 -28,73.5 -32,112.5 l -5,36.8 -13,-37.5 c -13,-39.4 -36,-83.2 -54,-102.4 -9,-9.3 -10,-10.9 -3,-8.1 4,1.5 19,3.8 34,4.7 19,1.1 30,-1 50,-8.4 16,-6 25,-9 27,-8.7 z m -279,61.2 c 5,-0.2 10,1.6 13,5.1 v 0.2 c 4,4.8 3,7.5 -3,13.3 -4,4 -8,14.5 -10,23.1 -1,8.5 -4,18.3 -8,21.1 -6,5.1 -6,4.3 -4,-8.2 2,-7.4 1,-19.9 -1,-27.8 -2,-8.2 -1,-16.7 1,-20.7 2,-3.9 7,-5.9 12,-6.1 z m 88,43.6 c 10,0 20,2.4 30,7 21.2,13.4 34.5,38.9 40,57.9 3,9.3 8,20.3 12,24.7 8,7.3 9,7.3 18,1.6 12,-7.5 16,-1.3 10,14.2 -9,24.3 -35,16.5 -50,-15.1 -10,-20.2 -11,-20.7 -15,-12.2 -3,6.3 -9,9.4 -17,10.2 -14,1.6 -15,0 -5,-13.7 4,-5.4 8,-14.5 8,-19.5 0,-13.3 -19,-32.4 -33,-32.4 -14,0 -41,12.1 -49,20.7 -7,8.9 -4,8.3 17,-3.6 11,-5.7 20,-9.2 21,-7.7 5,3.9 -19,30 -37,41.7 -10,6.3 -27,14.1 -38,16.9 -20,6.6 -41,17.9 -41,23 0,1.9 3,2.7 5,1.6 3,-1 15,-4 28,-6.7 19,-4.6 22,-4.4 29,1.6 6,5.8 4.9,12.4 3,16 -5.2,10 -15.4,9.4 -20,3.3 -8.3,-10.9 -32,-8.8 -57,4.9 -18,9.8 -39,12.9 -39,6.7 0,-7 46,-46.5 69,-59.3 14,-7.9 24,-17.6 28,-25 9,-17.6 35,-41.5 53,-49.7 10,-4.6 21,-7 30,-7.1 z m 54,18.8 h 11 c 7,0 13,1.1 14,2.3 3,3.2 -4,17.2 -8,17.2 -2,0 -6,-4.7 -10,-9.7 z m -420,33.4 c -1,0.4 -1,4.8 -1,14.2 0,23.2 18,57.4 44,84.3 20,21.5 64,46.1 88,50.1 15,2.3 16,1.9 19,-7.7 4,-15.3 0,-20 -19,-25.4 -42,-12.1 -105,-59.4 -117,-87.5 -3,-6.8 -8,-16.8 -10,-22.3 -2,-4 -3,-6.1 -4,-5.7 z m 5.6,23.4 c 1,-0.2 12.4,20.5 23.4,32.6 12,12.9 32,30.8 45,39.5 13,8.5 35,19.5 47,24.1 17,5.9 23,10.3 23,15.8 0,6.2 -2,7 -15,4.7 -23,-3.9 -61.6,-25.2 -79,-43.4 -17.4,-18.2 -51.6,-63 -44.4,-73.3 z m 180.4,72.7 c 3,0.6 6,4.4 5,9.5 -9,85.1 -12,97.6 -21,88.7 -5,-5.6 3,-83.7 10,-95.3 1,-2.3 4,-3.1 6,-2.9 z m 13,2.3 44,2.7 c 12.7,0.5 50.5,4.5 54,4.5 3.5,0 14,1 16,1.3 2,0 1,18.2 -3,48.7 l -8,48 -18,-1 c -9,-1 -20,-1.2 -24,-1.5 -12,-1 -28,-1.2 -42,-2 -14,-1.2 -28,-2.3 -29,-2.3 -2,0 -3,-4.7 -1,-10.9 1,-5.8 3,-19.5 4,-30 1,-11 3,-28.2 4,-38.8 z m 127,9 c 2,0 4.4,-0.2 8,2.6 3.6,2.8 1.5,17.4 -1,30.5 -2.5,13.1 -3.7,28 -6,39.7 -2.3,11.7 -4,24.6 -12,24.6 -6,0 -7,-2.4 -6,-10.9 7,-36.7 14,-81.2 14,-83.9 0,-1.8 1,-2.6 3,-2.6 z m -75,1.3 c -6.6,-0.2 -12,5.2 -12,11.8 0,6.6 5.4,11.9 12,11.7 6.6,0.2 12,-5.1 12,-11.7 0,-6.6 -5.4,-12 -12,-11.8 z m 0,5.3 c 3.4,0.3 6,3.1 6,6.5 0,3.4 -2.6,6.2 -6,6.5 -3.4,-0.3 -6,-3.1 -6,-6.5 0,-3.4 2.6,-6.2 6,-6.5 z m 96,0.9 c 13,-0.8 57,6.1 68,11.2 v 0.3 c 4,2 18,7.3 31,12.5 29,11.2 70,51.1 85,81.5 32,68.8 36,85.5 36,146.4 -1,66 -10,101.5 -41,152.5 -23,38 -73,74 -131,94 -63,21 -164,16 -230,-14 -85,-38 -114,-45 -162,-39 -45,6 -87.9,33 -107,59 -8,10.9 -15,14 -12,-6 4,-22 18,-50 43,-82 34,-46 43,-66 62,-139.5 21,-80.4 30,-108.1 48,-134.2 20,-31.7 27,-37.9 36,-35.3 8,2.4 6,4.8 -14,23.5 -12,11.3 -21,21.8 -20,23.4 1,1.6 10,-4.7 19,-13.7 18,-17.1 35,-27.3 70,-41.7 16,-7 28,-9 50,-8.6 h 40 c 17,0 53,13.3 75,29.2 24,15.7 44,37.6 57,62.9 10,19.2 10,20.8 4,20.8 -7,0 -31,-19.6 -31,-25.4 0,-3.2 -2,-6.7 -4,-7.8 -2,-1.2 -4,0.9 -4,4.2 0,3.6 7,13.3 16,21.9 13,11.7 19,14.8 31,14.8 17,0 24,-5.5 24,-19.5 0,-5.5 -2,-12.1 -5,-14.8 -7,-7.4 8,-5.8 16,1.5 6,5.5 8,5.5 15,-1.9 10,-9.4 12,-9.8 20,-4.4 4,2.8 5,4.8 2,6.7 -3,2 -7,9.8 -10,18 -2,9.3 -9,18 -16,22.3 l -12,7.5 22,-1 c 16,0 24,1.5 30,7 11,9.4 11,31.2 0,37.1 -7,3.5 -8,3.1 -8,-5.5 0,-19.5 -10,-23.8 -60,-27.3 -50,-3.5 -72,-21.8 -86,-71.5 -9,-31.2 -24,-41.3 -78,-52.3 -24,-4.7 -73,1.6 -98,12.2 -31.8,11.7 -48.4,32.6 -63.5,49.5 -15.1,16.9 -28.5,60.6 -28.5,91 1,106 72,179 210,213 38,9 50,10 73,8 71,-6 138,-42 170,-91 6,-10 17,-35 23,-56 20,-61.1 16,-113.4 -13,-165.4 -25,-44.5 -69,-71.4 -127,-79.3 -10,-1.2 -19,-2.2 -22,-2.6 -3,0 -6,-1.6 -7,-2.8 -2,-2 8,-84 11,-88.6 0,-0.4 2,-0.7 3,-0.8 z m -97,25.8 c -6.6,-0.2 -12,5.2 -12,11.8 0,6.6 5.4,11.9 12,11.7 6.6,0.2 12,-5.1 12,-11.7 0,-6.6 -5.4,-12 -12,-11.8 z m 117,1.7 c -11,0 -13,1.1 -13,11.2 0,6.3 -1,14.1 -2,17.3 -1,4.2 4,6.6 25,10.6 53,9.2 104,37.7 124,70.7 18,29.6 23,14 6,-20.4 -11,-23.8 -38,-53.1 -59,-63.6 -23,-11.8 -66,-25.8 -81,-25.8 z m -117,3.6 c 3.4,0.3 6,3.1 6,6.5 0,3.4 -2.6,6.2 -6,6.5 -3.4,-0.3 -6,-3.1 -6,-6.5 0,-3.4 2.6,-6.2 6,-6.5 z m 121,3.7 c 4,0.2 10,1.3 17,3.2 12,3.2 34,10.9 47,17.2 30,14.1 52,34.8 65,60.9 l 10,20 -20,-20.4 c -24,-24.1 -69,-46.8 -106,-53.9 -22,-4.2 -26,-6.2 -26,-12.9 0,-10.1 3,-14.4 13,-14.1 z m -122,23.6 c -6.6,-0.2 -12,5.1 -12,11.7 0,6.6 5.4,11.9 12,11.7 6.6,0.2 12,-5.1 12,-11.7 0,-6.6 -5.4,-11.9 -12,-11.7 z m 0,5.2 c 3.4,0.3 6,3.1 6,6.5 0,3.4 -2.6,6.2 -6,6.5 -3.4,-0.3 -6,-3.1 -6,-6.5 0,-3.4 2.6,-6.2 6,-6.5 z m -145,7.7 c 4,-0.7 8,0.1 13,2.3 7,2.7 6,4.3 -5,14.4 -11,10.6 -12,11 -18,4.8 -7,-6 -6,-7.1 0,-14.5 4,-4.1 7,-6.4 10,-7 z m 34,7.3 c 3,-0.4 6,0.1 6,1.7 0,1 -5,4.2 -12,7.7 -12,6.2 -17,1.2 -5,-5.5 3,-2.1 8,-3.5 11,-3.9 z m -70,7.5 c 4,0 12,3.5 17,7.3 12,9.9 7,14.5 -9,8.3 -11,-5.2 -13,-4.8 -19,3.1 -7,10.2 -11,10.9 -11,2.7 0,-8.1 13,-21.4 22,-21.4 z m 207,8.4 c 1,0.1 2,0.4 4,0.9 3,1 26,3.2 50,4.4 87,5.4 134,32.4 163,93.2 15,33.7 19,59.3 14,97.7 -7,65.7 -32,113.7 -75,144.7 -62,44 -121,54 -201,35 -91,-22 -154,-66 -183,-129 -9,-19.2 -11,-29.7 -12,-62.1 -1,-21.5 1,-46.1 3,-55.1 5,-19.6 27,-54.6 43,-67.5 12,-9.4 12,-9.4 10,-1.6 -3,9.4 7,36.3 13,36.3 2,0 6,-4.7 9,-10.9 6,-12.9 22,-16 32,-5.5 6,6.7 6,7.8 -3,20.7 -22,29.3 -23,85.6 -3,125 7,13.6 7,15.2 2,12.9 -4,-1.6 -19,-4 -34,-5.2 -28,-2.6 -36,-7 -33,-18.3 2,-10.5 12,-9.3 14,1.2 2,13.3 11,10.5 20,-5.5 5,-10.9 0,-25.7 -13,-34.4 -24,-15.5 -56,18.8 -47,48.9 5,13.7 24,34.1 36,37.1 9,2 11,4 10,10 -2,4 0,12 4,17 7,11 18,14 18,5 0,-17 29,-19 70,-7 l 26,8 -2,14 c -2,17 13,47 25,51 18,6 44,-2 56,-16 3,-3 10,-6 15,-6 8,0 9,2 8,8 -1,5 0,9 3,10 7,3 22,-8 22,-16 0,-3 6,-4 19,-3 24,3 41,-6 49,-25 4,-8 5,-19 4,-25 -1,-7 0,-11 2,-11 17,0 25,-27 13,-40.2 -8,-8.6 -13,-9 -13,-1.2 0,3.2 -3,5.9 -6,5.9 -12,0 -22,-22.6 -27,-60.2 -2,-10.5 -5,-21.9 -5,-24.2 0,-2.3 4,-5.4 23,-5.4 30,0 40,6.6 37,21.9 -5,19.5 16,14 25,-6.7 5,-10.6 4,-14 -2,-25.3 -6,-10.6 -10,-14.1 -22,-15.7 l -15,-2.4 7,-15.9 c 4,-8.7 10,-17.3 14,-19.2 10,-5.4 7,-11 -7,-16.8 -11,-4.3 -14,-4.3 -23,1.2 -9,5 -12,5.4 -16,1.6 -6,-6.3 -19,-5.9 -25,0 -4,3.8 -3,6.2 4,11.7 7,5.4 8,8.2 5,13.2 -8,12.5 -13,9.9 -23,-12 -12,-26.2 -48,-64.5 -70,-74.3 -12,-6.1 -19,-13.7 -12,-12.9 z m -89,24.5 c 19,-0.5 38,2.2 58,8 30,9.1 38,17.7 47,48.9 7,21.8 12,30.8 28,46.5 18,17.9 20,21 20,37.5 0,29.2 -11,53.5 -25,60.5 -7,3.1 -15,11.3 -19,18.3 -6,13.7 -9,15.7 -29,20.7 -18,4 -17,-4 4,-31 25,-33.2 34,-52.2 34,-78.1 -1,-50.3 -42,-94 -90,-94 -11,0 -24,2 -29,4.2 -6,3.7 -9,2.8 -14,-5 -3,-4.7 -10,-13.7 -16,-19.8 -11,-10.5 -11,-10.5 -2,-12.5 11,-2.5 22,-3.9 33,-4.2 z m -60,14.2 c 7,-0.3 14,1.5 22,5.6 7,3.5 15,13.6 21,27.3 9,18.7 10,24.7 8,43.4 -2,11.7 -8,32 -12,44.5 -12,29.2 -12,47.6 0,67.9 26,45.5 75,58.5 126,35.6 32,-15 47,-11 27,5.9 -30,26 -78,31 -130,14 -17,-6 -37,-10 -46,-10 -16,0 -30,8 -30,19 0,5 -2,4 -8,-3 -6,-7 -6,-11 -4,-17 3,-4 7,-7 10,-7 3,0 6,-2 6,-4 0,-3 -3,-3 -6,-2 -11,4 -35,-5 -46,-16.7 -14,-14.9 -16,-30.9 -7,-46.5 17,-27 53,-17.2 46,11.7 -3,11 -11,14.8 -11,5.5 0,-8.2 -7,-13.7 -16,-11.7 -5,1.6 -7,5.6 -7,15.2 0,16 8,21.1 38,23.4 13,1.2 29,4.7 36,8.1 16,8 20,5 10,-9.2 -26,-36.4 -30,-95.7 -9,-128.9 l 9,-14.4 3,11.8 c 2,6.2 3,17.5 1,25 -1,10.1 -1,12 2,7.7 6,-9.7 5,-39.9 -3,-53.5 -15,-23.4 -39,-26.6 -49,-6.7 -4,9 -5,9.4 -7,2.8 -6,-14.9 -4,-27.8 7,-36 6,-4.9 12,-7.5 19,-7.8 z m 86,31.2 c 12,-0.6 24.3,1.1 34,5.3 31,12.8 55,53.5 52,84.7 -3,23 -10,37.9 -31,67.9 -10,12.9 -19,27.2 -20,32.2 -3,8 -15,12 -19,6 -1,-2 6,-16 16,-30.8 22,-33.2 31,-47.6 28,-50.3 -1,-1 -9,2 -19,6.6 0,0 -7.6,5.5 -13.9,5.6 -6.3,0.2 -21.1,-5.2 -21.1,-5.2 -17.2,-6.5 -21,-7.4 -28,-2.4 -9,6.7 -10,2.4 -2,-9.7 7,-9.4 21,-11.4 29,-3.9 7,7 5,-1.2 -2,-9 -8,-9.4 -4,-26.9 6,-26.9 6,0 7,2 6,7.8 -3,10.5 5,19.5 18,19.5 12,0 17,-3.1 23,-14.4 9,-16.5 6,-31.7 -10,-48.5 -12,-13.3 -18,-16.4 -33,-17.9 -11,-1.2 -24,0 -31,1.9 -9,3.5 -12,3.1 -14,-2.3 -1,-3.9 1,-8.7 4,-11.3 5,-3.3 16,-4.3 28,-4.9 z m 5,23.4 c 9,0.4 20,2.9 27,7.6 30,18 29,58.6 -1,58.6 -12,0 -16,-6.6 -9,-14.1 4,-5 4,-6.6 -1,-9.8 -13,-8.1 -31,3.2 -31,20.7 0,3.6 -3,7.5 -7,9.1 -13,3.8 -22,33.2 -13,39 2,1.6 8,-1.2 11,-5.8 7,-8.7 8,-8.7 20,-2 8,3.9 20,5.8 29,5 8,-1 15,0 15,1.2 0,1.2 -6,9.8 -12,18.7 -7,9.1 -15,22.3 -18,29.5 -4,8 -9,14 -11,14 -9,0 -37,-22.7 -45,-36.8 -13,-21.8 -14,-37.1 -3,-61.3 5,-11.8 11,-30.5 13,-41.8 1,-14.5 5,-22.2 11,-26.2 5,-4.1 15,-5.9 25,-5.6 z m 135,53.1 c 1,-0.2 3,0.1 5,0.6 6,1.2 9,4.7 10,10.1 1,20.7 -7,61 -14,70.7 -4,5.4 -7,5.8 -13,2.4 -8,-3.9 -8,-5.1 -3,-21.9 3,-9.7 6,-27.7 8,-40.3 1,-16 2,-21 7,-21.6 z m 20,45.4 c 2,-0.4 5,7.3 10,24.4 v 0.3 c 2,8.6 7,19.9 13,25 9,8.5 11,9.5 18,4.5 7,-4.5 9,-4.5 12,0 9,14 -3,25.9 -19,19 -10,-5 -18,-2 -10,3 6,3.9 11,22.9 9,33.9 0,5 -5,13 -11,19 -13,13 -45,14 -62,1 -24,-18 -32,-34 -19,-39 4,-2 7,-2 8,-2 5,14 17,32 23,35 10,6 33,0 38,-8 6,-13 4,-25 -8,-43 -13,-19 -14,-27.7 -7,-58.2 2,-9.5 4,-14.7 5,-14.9 z m -364,26.5 c -2,0.3 -7,9.5 -12,26.3 -8,24.4 -24,56.4 -44,82.4 -6,9 -6,10 4,7 33,-10 66,-15 84,-12 l 17,2 -14,-22 c -17,-24 -32,-58.5 -32,-74.2 0,-6.6 -1,-9.7 -3,-9.5 z m 312,11.9 c 6,-0.2 14,3.1 22,9.7 13,11.1 15,16.1 9,25.1 -3,4 -6,3 -13,-6 -8,-8 -13,-11 -24,-11 -12,0 -14,-1 -10,-6.9 3,-7.1 9,-10.7 16,-10.9 z m -315,10.8 c 1,0 2,1.9 3,5 2,5 7,16 10,23.9 3,9 11,22 17,31 l 11,15 h -22 c -13,0 -32,2 -44,5 l -20,6 16,-24 c 8,-13 18,-33 22,-45 4,-12 6,-17 7,-16.9 z m 356,16 c 1,0 6,8 12,17.9 9,16 9,19 5,27 -5,9 -8,10 -21,9 -13,-1 -16,-3 -23,-15 -6,-10 -8,-17 -6,-25 l 4,-12 6,9 c 7,11 16,11 19,-1 1,-6 3,-10 4,-9.9 z m -64,35.9 c 3,1 5,3 7,7 3,7 3,10 -1,12 -8,5 -11,5 -22,-4 -6,-6 -7,-8 -4,-9 2,-1 7,-3 10,-4 5,-1 8,-2 10,-2 z m -77,5 c 5.7,1.2 13,4.4 13,10 -0.2,10.1 8,25 22,23 7.9,-1.1 11,-2 13,-11 2,-16 10,-13 18,7 0,0 5,-1 11,-4 19,-9 45,8 33,22 -6,8 -11,7 -11,-1 0,-14 -15,-15 -33,-1 -30,21 -50,19 -65,-5 -7,-12 -7,-31.6 -5,-39 0.4,-1.4 3,-1 4,-1 z m 31,2 c 5,0 10,3 11,9 4,12 -6,22 -14,15 -7,-6 -9,-17 -4,-21 2,-2 5,-3 7,-3 z" />
</svg>
